simulation
nRows=55
nColumns=15
endheader
time  TH_x TH_y TH_z SC_y  SC_z  SC_x  AC_y  AC_z  AC_x  GH_y  GH_z  GH_yy  EL_x  PS_y
0.500114  0.000000  0.000000  0.000000  -34.796320  9.425104  22.600819  67.437229  16.220583  10.797159  62.767593  46.047223  -55.103734  20.609024  97.284071
0.500341  0.000000  0.000000  0.000000  -34.796320  9.425104  12.600819  65.928637  25.408311  15.027301  62.767593  46.047223  -55.103734  20.609024  97.284071
0.500568  0.000000  0.000000  0.000000  -34.796320  9.425104  14.823041  66.336418  23.376070  14.040065  62.767593  46.047223  -55.103734  20.609024  97.284071
0.500796  0.000000  0.000000  0.000000  -34.796320  9.425104  17.045263  66.700643  21.337821  13.082697  62.767593  46.047223  -55.103734  20.609024  97.284071
0.501023  0.000000  0.000000  0.000000  -34.796320  9.425104  19.267486  67.023970  19.294300  12.151616  62.767593  46.047223  -55.103734  20.609024  97.284071
0.501250  0.000000  0.000000  0.000000  -34.796320  9.425104  21.489708  67.308704  17.246176  11.243534  62.767593  46.047223  -55.103734  20.609024  97.284071
0.501478  0.000000  0.000000  0.000000  -34.796320  9.425104  23.711930  67.556826  15.194067  10.355411  62.767593  46.047223  -55.103734  20.609024  97.284071
0.501705  0.000000  0.000000  0.000000  -34.796320  9.425104  25.934152  67.770028  13.138544  9.484421  62.767593  46.047223  -55.103734  20.609024  97.284071
0.501932  0.000000  0.000000  0.000000  -34.796320  9.425104  28.156374  67.949737  11.080138  8.627912  62.767593  46.047223  -55.103734  20.609024  97.284071
0.502160  0.000000  0.000000  0.000000  -34.796320  9.425104  30.378597  68.097136  9.019351  7.783382  62.767593  46.047223  -55.103734  20.609024  97.284071
0.502387  0.000000  0.000000  0.000000  -34.796320  9.425104  32.600819  68.213184  6.956659  6.948449  62.767593  46.047223  -55.103734  20.609024  97.284071
0.502614  0.000000  0.000000  0.000000  -30.474903  -7.960420  29.980738  69.027277  2.316037  -19.034108  59.111623  56.739478  -55.613683  29.046575  79.882398
0.502842  0.000000  0.000000  0.000000  -30.474903  -7.960420  19.980738  68.583557  11.642777  -15.395764  59.111623  56.739478  -55.613683  29.046575  79.882398
0.503069  0.000000  0.000000  0.000000  -30.474903  -7.960420  22.202960  68.735034  9.572890  -16.218476  59.111623  56.739478  -55.613683  29.046575  79.882398
0.503296  0.000000  0.000000  0.000000  -30.474903  -7.960420  24.425182  68.855705  7.501089  -17.031215  59.111623  56.739478  -55.613683  29.046575  79.882398
0.503524  0.000000  0.000000  0.000000  -30.474903  -7.960420  26.647404  68.946357  5.427811  -17.836245  59.111623  56.739478  -55.613683  29.046575  79.882398
0.503751  0.000000  0.000000  0.000000  -30.474903  -7.960420  28.869626  69.007576  3.353474  -18.635755  59.111623  56.739478  -55.613683  29.046575  79.882398
0.503978  0.000000  0.000000  0.000000  -30.474903  -7.960420  31.091849  69.039753  1.278489  -19.431878  59.111623  56.739478  -55.613683  29.046575  79.882398
0.504206  0.000000  0.000000  0.000000  -30.474903  -7.960420  33.314071  69.043095  -0.796743  -20.226715  59.111623  56.739478  -55.613683  29.046575  79.882398
0.504433  0.000000  0.000000  0.000000  -30.474903  -7.960420  35.536293  69.017623  -2.871821  -21.022353  59.111623  56.739478  -55.613683  29.046575  79.882398
0.504660  0.000000  0.000000  0.000000  -30.474903  -7.960420  37.758515  68.963175  -4.946345  -21.820888  59.111623  56.739478  -55.613683  29.046575  79.882398
0.504887  0.000000  0.000000  0.000000  -30.474903  -7.960420  39.980738  68.879401  -7.019906  -22.624444  59.111623  56.739478  -55.613683  29.046575  79.882398
0.505115  0.000000  0.000000  0.000000  -38.227520  -11.283111  30.732142  78.071147  12.890082  -0.394448  47.006480  47.430061  -53.270755  20.047440  94.875449
0.505342  0.000000  0.000000  0.000000  -38.227520  -11.283111  20.732142  77.388023  22.662928  1.834678  47.006480  47.430061  -53.270755  20.047440  94.875449
0.505569  0.000000  0.000000  0.000000  -38.227520  -11.283111  22.954364  77.578518  20.493506  1.316802  47.006480  47.430061  -53.270755  20.047440  94.875449
0.505797  0.000000  0.000000  0.000000  -38.227520  -11.283111  25.176586  77.745830  18.322592  0.813390  47.006480  47.430061  -53.270755  20.047440  94.875449
0.506024  0.000000  0.000000  0.000000  -38.227520  -11.283111  27.398809  77.891326  16.150391  0.322464  47.006480  47.430061  -53.270755  20.047440  94.875449
0.506251  0.000000  0.000000  0.000000  -38.227520  -11.283111  29.621031  78.016164  13.977090  -0.157792  47.006480  47.430061  -53.270755  20.047440  94.875449
0.506479  0.000000  0.000000  0.000000  -38.227520  -11.283111  31.843253  78.121314  11.802863  -0.629058  47.006480  47.430061  -53.270755  20.047440  94.875449
0.506706  0.000000  0.000000  0.000000  -38.227520  -11.283111  34.065475  78.207573  9.627873  -1.092904  47.006480  47.430061  -53.270755  20.047440  94.875449
0.506933  0.000000  0.000000  0.000000  -38.227520  -11.283111  36.287698  78.275585  7.452271  -1.550811  47.006480  47.430061  -53.270755  20.047440  94.875449
0.507161  0.000000  0.000000  0.000000  -38.227520  -11.283111  38.509920  78.325851  5.276203  -2.004189  47.006480  47.430061  -53.270755  20.047440  94.875449
0.507388  0.000000  0.000000  0.000000  -38.227520  -11.283111  40.732142  78.358735  3.099809  -2.454396  47.006480  47.430061  -53.270755  20.047440  94.875449
0.507615  0.000000  0.000000  0.000000  -32.123624  -0.266489  21.973390  67.611058  9.640649  -2.527583  55.261183  47.350985  -63.873923  22.918754  82.894044
0.507843  0.000000  0.000000  0.000000  -32.123624  -0.266489  11.973390  66.621005  18.857467  1.480238  55.261183  47.350985  -63.873923  22.918754  82.894044
0.508070  0.000000  0.000000  0.000000  -32.123624  -0.266489  14.195612  66.903160  16.815478  0.559237  55.261183  47.350985  -63.873923  22.918754  82.894044
0.508297  0.000000  0.000000  0.000000  -32.123624  -0.266489  16.417834  67.148508  14.769477  -0.342109  55.261183  47.350985  -63.873923  22.918754  82.894044
0.508525  0.000000  0.000000  0.000000  -32.123624  -0.266489  18.640057  67.358703  12.720045  -1.226621  55.261183  47.350985  -63.873923  22.918754  82.894044
0.508752  0.000000  0.000000  0.000000  -32.123624  -0.266489  20.862279  67.535135  10.667728  -2.096949  55.261183  47.350985  -63.873923  22.918754  82.894044
0.508979  0.000000  0.000000  0.000000  -32.123624  -0.266489  23.084501  67.678954  8.613038  -2.955600  55.261183  47.350985  -63.873923  22.918754  82.894044
0.509207  0.000000  0.000000  0.000000  -32.123624  -0.266489  25.306723  67.791084  6.556464  -3.804966  55.261183  47.350985  -63.873923  22.918754  82.894044
0.509434  0.000000  0.000000  0.000000  -32.123624  -0.266489  27.528946  67.872239  4.498473  -4.647347  55.261183  47.350985  -63.873923  22.918754  82.894044
0.509661  0.000000  0.000000  0.000000  -32.123624  -0.266489  29.751168  67.922932  2.439519  -5.484977  55.261183  47.350985  -63.873923  22.918754  82.894044
0.509889  0.000000  0.000000  0.000000  -32.123624  -0.266489  31.973390  67.943481  0.380045  -6.320046  55.261183  47.350985  -63.873923  22.918754  82.894044
0.510116  0.000000  0.000000  0.000000  -26.232217  -12.405229  30.520525  81.113097  8.866250  -9.800994  65.937664  55.165279  -64.572800  13.512478  92.663405
0.510343  0.000000  0.000000  0.000000  -26.232217  -12.405229  20.520525  80.724313  18.741584  -8.177703  65.937664  55.165279  -64.572800  13.512478  92.663405
0.510571  0.000000  0.000000  0.000000  -26.232217  -12.405229  22.742747  80.837570  16.548058  -8.551277  65.937664  55.165279  -64.572800  13.512478  92.663405
0.510798  0.000000  0.000000  0.000000  -26.232217  -12.405229  24.964970  80.934873  14.353882  -8.916443  65.937664  55.165279  -64.572800  13.512478  92.663405
0.511025  0.000000  0.000000  0.000000  -26.232217  -12.405229  27.187192  81.016999  12.159158  -9.274518  65.937664  55.165279  -64.572800  13.512478  92.663405
0.511253  0.000000  0.000000  0.000000  -26.232217  -12.405229  29.409414  81.084588  9.963981  -9.626726  65.937664  55.165279  -64.572800  13.512478  92.663405
0.511480  0.000000  0.000000  0.000000  -26.232217  -12.405229  31.631636  81.138156  7.768439  -9.974223  65.937664  55.165279  -64.572800  13.512478  92.663405
0.511707  0.000000  0.000000  0.000000  -26.232217  -12.405229  33.853859  81.178109  5.572619  -10.318103  65.937664  55.165279  -64.572800  13.512478  92.663405
0.511935  0.000000  0.000000  0.000000  -26.232217  -12.405229  36.076081  81.204743  3.376600  -10.659419  65.937664  55.165279  -64.572800  13.512478  92.663405
0.512162  0.000000  0.000000  0.000000  -26.232217  -12.405229  38.298303  81.218254  1.180462  -10.999195  65.937664  55.165279  -64.572800  13.512478  92.663405
0.512389  0.000000  0.000000  0.000000  -26.232217  -12.405229  40.520525  81.218742  -1.015717  -11.338434  65.937664  55.165279  -64.572800  13.512478  92.663405
